<svg xmlns="http://www.w3.org/2000/svg" width="1920" height="1080" viewBox="0 0 1920 1080"><defs></defs><rect width="1920" height="1080" fill="white"/><g><rect x="2" y="2" width="98" height="104" fill="#3f7fde"/><circle cx="36" cy="36" r="34" fill="#f5efe9"/><rect x="26" y="66" width="90" height="20" fill="#c2d79e"/></g><g><rect x="98" y="2" width="98" height="104" fill="#3f7fde"/><circle cx="132" cy="36" r="34" fill="#f5efe9"/><rect x="122" y="66" width="90" height="20" fill="#c2d79e"/></g><g><rect x="194" y="2" width="98" height="104" fill="#3f7fde"/><circle cx="228" cy="36" r="34" fill="#f5efe9"/><rect x="218" y="66" width="90" height="20" fill="#c2d79e"/></g><g><rect x="290" y="2" width="98" height="104" fill="#3f7fde"/><circle cx="324" cy="36" r="34" fill="#f5efe9"/><rect x="314" y="66" width="90" height="20" fill="#c2d79e"/></g><g><rect x="386" y="2" width="98" height="104" fill="#3f7fde"/><circle cx="420" cy="36" r="34" fill="#f5efe9"/><rect x="410" y="66" width="90" height="20" fill="#c2d79e"/></g><g><rect x="482" y="2" width="98" height="104" fill="#3f7fde"/><circle cx="516" cy="36" r="34" fill="#f5efe9"/><rect x="506" y="66" width="90" height="20" fill="#c2d79e"/></g><g><rect x="578" y="2" width="98" height="104" fill="#3f7fde"/><circle cx="612" cy="36" r="34" fill="#f5efe9"/><rect x="602" y="66" width="90" height="20" fill="#c2d79e"/></g><g><rect x="674" y="2" width="98" height="104" fill="#3f7fde"/><circle cx="708" cy="36" r="34" fill="#f5efe9"/><rect x="698" y="66" width="90" height="20" fill="#c2d79e"/></g><g><rect x="770" y="2" width="98" height="104" fill="#3f7fde"/><circle cx="804" cy="36" r="34" fill="#f5efe9"/><rect x="794" y="66" width="90" height="20" fill="#c2d79e"/></g><g><rect x="866" y="2" width="98" height="104" fill="#3f7fde"/><circle cx="900" cy="36" r="34" fill="#f5efe9"/><rect x="890" y="66" width="90" height="20" fill="#c2d79e"/></g><g><rect x="962" y="2" width="98" height="104" fill="#3f7fde"/><circle cx="996" cy="36" r="34" fill="#f5efe9"/><rect x="986" y="66" width="90" height="20" fill="#c2d79e"/></g><g><rect x="1058" y="2" width="98" height="104" fill="#3f7fde"/><circle cx="1092" cy="36" r="34" fill="#f5efe9"/><rect x="1082" y="66" width="90" height="20" fill="#c2d79e"/></g><g><rect x="1154" y="2" width="98" height="104" fill="#3f7fde"/><circle cx="1188" cy="36" r="34" fill="#f5efe9"/><rect x="1178" y="66" width="90" height="20" fill="#c2d79e"/></g><g><rect x="1250" y="2" width="98" height="104" fill="#3f7fde"/><circle cx="1284" cy="36" r="34" fill="#f5efe9"/><rect x="1274" y="66" width="90" height="20" fill="#c2d79e"/></g><g><rect x="1346" y="2" width="98" height="104" fill="#3f7fde"/><circle cx="1380" cy="36" r="34" fill="#f5efe9"/><rect x="1370" y="66" width="90" height="20" fill="#c2d79e"/></g><g><rect x="1442" y="2" width="98" height="104" fill="#3f7fde"/><circle cx="1476" cy="36" r="34" fill="#f5efe9"/><rect x="1466" y="66" width="90" height="20" fill="#c2d79e"/></g><g><rect x="1538" y="2" width="98" height="104" fill="#3f7fde"/><circle cx="1572" cy="36" r="34" fill="#f5efe9"/><rect x="1562" y="66" width="90" height="20" fill="#c2d79e"/></g><g><rect x="1634" y="2" width="98" height="104" fill="#3f7fde"/><circle cx="1668" cy="36" r="34" fill="#f5efe9"/><rect x="1658" y="66" width="90" height="20" fill="#c2d79e"/></g><g><rect x="1730" y="2" width="98" height="104" fill="#3f7fde"/><circle cx="1764" cy="36" r="34" fill="#f5efe9"/><rect x="1754" y="66" width="90" height="20" fill="#c2d79e"/></g><g><rect x="1826" y="2" width="98" height="104" fill="#3f7fde"/><circle cx="1860" cy="36" r="34" fill="#f5efe9"/><rect x="1850" y="66" width="90" height="20" fill="#c2d79e"/></g><g><rect x="2" y="110" width="98" height="104" fill="#3f7fde"/><circle cx="36" cy="144" r="34" fill="#f5efe9"/><rect x="26" y="174" width="90" height="20" fill="#c2d79e"/></g><g><rect x="98" y="110" width="98" height="104" fill="#3f7fde"/><circle cx="132" cy="144" r="34" fill="#f5efe9"/><rect x="122" y="174" width="90" height="20" fill="#c2d79e"/></g><g><rect x="194" y="110" width="98" height="104" fill="#3f7fde"/><circle cx="228" cy="144" r="34" fill="#f5efe9"/><rect x="218" y="174" width="90" height="20" fill="#c2d79e"/></g><g><rect x="290" y="110" width="98" height="104" fill="#3f7fde"/><circle cx="324" cy="144" r="34" fill="#f5efe9"/><rect x="314" y="174" width="90" height="20" fill="#c2d79e"/></g><g><rect x="386" y="110" width="98" height="104" fill="#3f7fde"/><circle cx="420" cy="144" r="34" fill="#f5efe9"/><rect x="410" y="174" width="90" height="20" fill="#c2d79e"/></g><g><rect x="482" y="110" width="98" height="104" fill="#3f7fde"/><circle cx="516" cy="144" r="34" fill="#f5efe9"/><rect x="506" y="174" width="90" height="20" fill="#c2d79e"/></g><g><rect x="578" y="110" width="98" height="104" fill="#3f7fde"/><circle cx="612" cy="144" r="34" fill="#f5efe9"/><rect x="602" y="174" width="90" height="20" fill="#c2d79e"/></g><g><rect x="674" y="110" width="98" height="104" fill="#3f7fde"/><circle cx="708" cy="144" r="34" fill="#f5efe9"/><rect x="698" y="174" width="90" height="20" fill="#c2d79e"/></g><g><rect x="770" y="110" width="98" height="104" fill="#3f7fde"/><circle cx="804" cy="144" r="34" fill="#f5efe9"/><rect x="794" y="174" width="90" height="20" fill="#c2d79e"/></g><g><rect x="866" y="110" width="98" height="104" fill="#3f7fde"/><circle cx="900" cy="144" r="34" fill="#f5efe9"/><rect x="890" y="174" width="90" height="20" fill="#c2d79e"/></g><g><rect x="962" y="110" width="98" height="104" fill="#3f7fde"/><circle cx="996" cy="144" r="34" fill="#f5efe9"/><rect x="986" y="174" width="90" height="20" fill="#c2d79e"/></g><g><rect x="1058" y="110" width="98" height="104" fill="#3f7fde"/><circle cx="1092" cy="144" r="34" fill="#f5efe9"/><rect x="1082" y="174" width="90" height="20" fill="#c2d79e"/></g><g><rect x="1154" y="110" width="98" height="104" fill="#3f7fde"/><circle cx="1188" cy="144" r="34" fill="#f5efe9"/><rect x="1178" y="174" width="90" height="20" fill="#c2d79e"/></g><g><rect x="1250" y="110" width="98" height="104" fill="#3f7fde"/><circle cx="1284" cy="144" r="34" fill="#f5efe9"/><rect x="1274" y="174" width="90" height="20" fill="#c2d79e"/></g><g><rect x="1346" y="110" width="98" height="104" fill="#3f7fde"/><circle cx="1380" cy="144" r="34" fill="#f5efe9"/><rect x="1370" y="174" width="90" height="20" fill="#c2d79e"/></g><g><rect x="1442" y="110" width="98" height="104" fill="#3f7fde"/><circle cx="1476" cy="144" r="34" fill="#f5efe9"/><rect x="1466" y="174" width="90" height="20" fill="#c2d79e"/></g><g><rect x="1538" y="110" width="98" height="104" fill="#3f7fde"/><circle cx="1572" cy="144" r="34" fill="#f5efe9"/><rect x="1562" y="174" width="90" height="20" fill="#c2d79e"/></g><g><rect x="1634" y="110" width="98" height="104" fill="#3f7fde"/><circle cx="1668" cy="144" r="34" fill="#f5efe9"/><rect x="1658" y="174" width="90" height="20" fill="#c2d79e"/></g><g><rect x="1730" y="110" width="98" height="104" fill="#3f7fde"/><circle cx="1764" cy="144" r="34" fill="#f5efe9"/><rect x="1754" y="174" width="90" height="20" fill="#c2d79e"/></g><g><rect x="1826" y="110" width="98" height="104" fill="#3f7fde"/><circle cx="1860" cy="144" r="34" fill="#f5efe9"/><rect x="1850" y="174" width="90" height="20" fill="#c2d79e"/></g><g><rect x="2" y="218" width="98" height="104" fill="#3f7fde"/><circle cx="36" cy="252" r="34" fill="#f5efe9"/><rect x="26" y="282" width="90" height="20" fill="#c2d79e"/></g><g><rect x="98" y="218" width="98" height="104" fill="#3f7fde"/><circle cx="132" cy="252" r="34" fill="#f5efe9"/><rect x="122" y="282" width="90" height="20" fill="#c2d79e"/></g><g><rect x="194" y="218" width="98" height="104" fill="#3f7fde"/><circle cx="228" cy="252" r="34" fill="#f5efe9"/><rect x="218" y="282" width="90" height="20" fill="#c2d79e"/></g><g><rect x="290" y="218" width="98" height="104" fill="#3f7fde"/><circle cx="324" cy="252" r="34" fill="#f5efe9"/><rect x="314" y="282" width="90" height="20" fill="#c2d79e"/></g><g><rect x="386" y="218" width="98" height="104" fill="#3f7fde"/><circle cx="420" cy="252" r="34" fill="#f5efe9"/><rect x="410" y="282" width="90" height="20" fill="#c2d79e"/></g><g><rect x="482" y="218" width="98" height="104" fill="#3f7fde"/><circle cx="516" cy="252" r="34" fill="#f5efe9"/><rect x="506" y="282" width="90" height="20" fill="#c2d79e"/></g><g><rect x="578" y="218" width="98" height="104" fill="#3f7fde"/><circle cx="612" cy="252" r="34" fill="#f5efe9"/><rect x="602" y="282" width="90" height="20" fill="#c2d79e"/></g><g><rect x="674" y="218" width="98" height="104" fill="#3f7fde"/><circle cx="708" cy="252" r="34" fill="#f5efe9"/><rect x="698" y="282" width="90" height="20" fill="#c2d79e"/></g><g><rect x="770" y="218" width="98" height="104" fill="#3f7fde"/><circle cx="804" cy="252" r="34" fill="#f5efe9"/><rect x="794" y="282" width="90" height="20" fill="#c2d79e"/></g><g><rect x="866" y="218" width="98" height="104" fill="#3f7fde"/><circle cx="900" cy="252" r="34" fill="#f5efe9"/><rect x="890" y="282" width="90" height="20" fill="#c2d79e"/></g><g><rect x="962" y="218" width="98" height="104" fill="#3f7fde"/><circle cx="996" cy="252" r="34" fill="#f5efe9"/><rect x="986" y="282" width="90" height="20" fill="#c2d79e"/></g><g><rect x="1058" y="218" width="98" height="104" fill="#3f7fde"/><circle cx="1092" cy="252" r="34" fill="#f5efe9"/><rect x="1082" y="282" width="90" height="20" fill="#c2d79e"/></g><g><rect x="1154" y="218" width="98" height="104" fill="#3f7fde"/><circle cx="1188" cy="252" r="34" fill="#f5efe9"/><rect x="1178" y="282" width="90" height="20" fill="#c2d79e"/></g><g><rect x="1250" y="218" width="98" height="104" fill="#3f7fde"/><circle cx="1284" cy="252" r="34" fill="#f5efe9"/><rect x="1274" y="282" width="90" height="20" fill="#c2d79e"/></g><g><rect x="1346" y="218" width="98" height="104" fill="#3f7fde"/><circle cx="1380" cy="252" r="34" fill="#f5efe9"/><rect x="1370" y="282" width="90" height="20" fill="#c2d79e"/></g><g><rect x="1442" y="218" width="98" height="104" fill="#3f7fde"/><circle cx="1476" cy="252" r="34" fill="#f5efe9"/><rect x="1466" y="282" width="90" height="20" fill="#c2d79e"/></g><g><rect x="1538" y="218" width="98" height="104" fill="#3f7fde"/><circle cx="1572" cy="252" r="34" fill="#f5efe9"/><rect x="1562" y="282" width="90" height="20" fill="#c2d79e"/></g><g><rect x="1634" y="218" width="98" height="104" fill="#3f7fde"/><circle cx="1668" cy="252" r="34" fill="#f5efe9"/><rect x="1658" y="282" width="90" height="20" fill="#c2d79e"/></g><g><rect x="1730" y="218" width="98" height="104" fill="#3f7fde"/><circle cx="1764" cy="252" r="34" fill="#f5efe9"/><rect x="1754" y="282" width="90" height="20" fill="#c2d79e"/></g><g><rect x="1826" y="218" width="98" height="104" fill="#3f7fde"/><circle cx="1860" cy="252" r="34" fill="#f5efe9"/><rect x="1850" y="282" width="90" height="20" fill="#c2d79e"/></g><g><rect x="2" y="326" width="98" height="104" fill="#3f7fde"/><circle cx="36" cy="360" r="34" fill="#f5efe9"/><rect x="26" y="390" width="90" height="20" fill="#c2d79e"/></g><g><rect x="98" y="326" width="98" height="104" fill="#3f7fde"/><circle cx="132" cy="360" r="34" fill="#f5efe9"/><rect x="122" y="390" width="90" height="20" fill="#c2d79e"/></g><g><rect x="194" y="326" width="98" height="104" fill="#3f7fde"/><circle cx="228" cy="360" r="34" fill="#f5efe9"/><rect x="218" y="390" width="90" height="20" fill="#c2d79e"/></g><g><rect x="290" y="326" width="98" height="104" fill="#3f7fde"/><circle cx="324" cy="360" r="34" fill="#f5efe9"/><rect x="314" y="390" width="90" height="20" fill="#c2d79e"/></g><g><rect x="386" y="326" width="98" height="104" fill="#3f7fde"/><circle cx="420" cy="360" r="34" fill="#f5efe9"/><rect x="410" y="390" width="90" height="20" fill="#c2d79e"/></g><g><rect x="482" y="326" width="98" height="104" fill="#3f7fde"/><circle cx="516" cy="360" r="34" fill="#f5efe9"/><rect x="506" y="390" width="90" height="20" fill="#c2d79e"/></g><g><rect x="578" y="326" width="98" height="104" fill="#3f7fde"/><circle cx="612" cy="360" r="34" fill="#f5efe9"/><rect x="602" y="390" width="90" height="20" fill="#c2d79e"/></g><g><rect x="674" y="326" width="98" height="104" fill="#3f7fde"/><circle cx="708" cy="360" r="34" fill="#f5efe9"/><rect x="698" y="390" width="90" height="20" fill="#c2d79e"/></g><g><rect x="770" y="326" width="98" height="104" fill="#3f7fde"/><circle cx="804" cy="360" r="34" fill="#f5efe9"/><rect x="794" y="390" width="90" height="20" fill="#c2d79e"/></g><g><rect x="866" y="326" width="98" height="104" fill="#3f7fde"/><circle cx="900" cy="360" r="34" fill="#f5efe9"/><rect x="890" y="390" width="90" height="20" fill="#c2d79e"/></g><g><rect x="962" y="326" width="98" height="104" fill="#3f7fde"/><circle cx="996" cy="360" r="34" fill="#f5efe9"/><rect x="986" y="390" width="90" height="20" fill="#c2d79e"/></g><g><rect x="1058" y="326" width="98" height="104" fill="#3f7fde"/><circle cx="1092" cy="360" r="34" fill="#f5efe9"/><rect x="1082" y="390" width="90" height="20" fill="#c2d79e"/></g><g><rect x="1154" y="326" width="98" height="104" fill="#3f7fde"/><circle cx="1188" cy="360" r="34" fill="#f5efe9"/><rect x="1178" y="390" width="90" height="20" fill="#c2d79e"/></g><g><rect x="1250" y="326" width="98" height="104" fill="#3f7fde"/><circle cx="1284" cy="360" r="34" fill="#f5efe9"/><rect x="1274" y="390" width="90" height="20" fill="#c2d79e"/></g><g><rect x="1346" y="326" width="98" height="104" fill="#3f7fde"/><circle cx="1380" cy="360" r="34" fill="#f5efe9"/><rect x="1370" y="390" width="90" height="20" fill="#c2d79e"/></g><g><rect x="1442" y="326" width="98" height="104" fill="#3f7fde"/><circle cx="1476" cy="360" r="34" fill="#f5efe9"/><rect x="1466" y="390" width="90" height="20" fill="#c2d79e"/></g><g><rect x="1538" y="326" width="98" height="104" fill="#3f7fde"/><circle cx="1572" cy="360" r="34" fill="#f5efe9"/><rect x="1562" y="390" width="90" height="20" fill="#c2d79e"/></g><g><rect x="1634" y="326" width="98" height="104" fill="#3f7fde"/><circle cx="1668" cy="360" r="34" fill="#f5efe9"/><rect x="1658" y="390" width="90" height="20" fill="#c2d79e"/></g><g><rect x="1730" y="326" width="98" height="104" fill="#3f7fde"/><circle cx="1764" cy="360" r="34" fill="#f5efe9"/><rect x="1754" y="390" width="90" height="20" fill="#c2d79e"/></g><g><rect x="1826" y="326" width="98" height="104" fill="#3f7fde"/><circle cx="1860" cy="360" r="34" fill="#f5efe9"/><rect x="1850" y="390" width="90" height="20" fill="#c2d79e"/></g><g><rect x="2" y="434" width="98" height="104" fill="#3f7fde"/><circle cx="36" cy="468" r="34" fill="#f5efe9"/><rect x="26" y="498" width="90" height="20" fill="#c2d79e"/></g><g><rect x="98" y="434" width="98" height="104" fill="#3f7fde"/><circle cx="132" cy="468" r="34" fill="#f5efe9"/><rect x="122" y="498" width="90" height="20" fill="#c2d79e"/></g><g><rect x="194" y="434" width="98" height="104" fill="#3f7fde"/><circle cx="228" cy="468" r="34" fill="#f5efe9"/><rect x="218" y="498" width="90" height="20" fill="#c2d79e"/></g><g><rect x="290" y="434" width="98" height="104" fill="#3f7fde"/><circle cx="324" cy="468" r="34" fill="#f5efe9"/><rect x="314" y="498" width="90" height="20" fill="#c2d79e"/></g><g><rect x="386" y="434" width="98" height="104" fill="#3f7fde"/><circle cx="420" cy="468" r="34" fill="#f5efe9"/><rect x="410" y="498" width="90" height="20" fill="#c2d79e"/></g><g><rect x="482" y="434" width="98" height="104" fill="#3f7fde"/><circle cx="516" cy="468" r="34" fill="#f5efe9"/><rect x="506" y="498" width="90" height="20" fill="#c2d79e"/></g><g><rect x="578" y="434" width="98" height="104" fill="#3f7fde"/><circle cx="612" cy="468" r="34" fill="#f5efe9"/><rect x="602" y="498" width="90" height="20" fill="#c2d79e"/></g><g><rect x="674" y="434" width="98" height="104" fill="#3f7fde"/><circle cx="708" cy="468" r="34" fill="#f5efe9"/><rect x="698" y="498" width="90" height="20" fill="#c2d79e"/></g><g><rect x="770" y="434" width="98" height="104" fill="#3f7fde"/><circle cx="804" cy="468" r="34" fill="#f5efe9"/><rect x="794" y="498" width="90" height="20" fill="#c2d79e"/></g><g><rect x="866" y="434" width="98" height="104" fill="#3f7fde"/><circle cx="900" cy="468" r="34" fill="#f5efe9"/><rect x="890" y="498" width="90" height="20" fill="#c2d79e"/></g><g><rect x="962" y="434" width="98" height="104" fill="#3f7fde"/><circle cx="996" cy="468" r="34" fill="#f5efe9"/><rect x="986" y="498" width="90" height="20" fill="#c2d79e"/></g><g><rect x="1058" y="434" width="98" height="104" fill="#3f7fde"/><circle cx="1092" cy="468" r="34" fill="#f5efe9"/><rect x="1082" y="498" width="90" height="20" fill="#c2d79e"/></g><g><rect x="1154" y="434" width="98" height="104" fill="#3f7fde"/><circle cx="1188" cy="468" r="34" fill="#f5efe9"/><rect x="1178" y="498" width="90" height="20" fill="#c2d79e"/></g><g><rect x="1250" y="434" width="98" height="104" fill="#3f7fde"/><circle cx="1284" cy="468" r="34" fill="#f5efe9"/><rect x="1274" y="498" width="90" height="20" fill="#c2d79e"/></g><g><rect x="1346" y="434" width="98" height="104" fill="#3f7fde"/><circle cx="1380" cy="468" r="34" fill="#f5efe9"/><rect x="1370" y="498" width="90" height="20" fill="#c2d79e"/></g><g><rect x="1442" y="434" width="98" height="104" fill="#3f7fde"/><circle cx="1476" cy="468" r="34" fill="#f5efe9"/><rect x="1466" y="498" width="90" height="20" fill="#c2d79e"/></g><g><rect x="1538" y="434" width="98" height="104" fill="#3f7fde"/><circle cx="1572" cy="468" r="34" fill="#f5efe9"/><rect x="1562" y="498" width="90" height="20" fill="#c2d79e"/></g><g><rect x="1634" y="434" width="98" height="104" fill="#3f7fde"/><circle cx="1668" cy="468" r="34" fill="#f5efe9"/><rect x="1658" y="498" width="90" height="20" fill="#c2d79e"/></g><g><rect x="1730" y="434" width="98" height="104" fill="#3f7fde"/><circle cx="1764" cy="468" r="34" fill="#f5efe9"/><rect x="1754" y="498" width="90" height="20" fill="#c2d79e"/></g><g><rect x="1826" y="434" width="98" height="104" fill="#3f7fde"/><circle cx="1860" cy="468" r="34" fill="#f5efe9"/><rect x="1850" y="498" width="90" height="20" fill="#c2d79e"/></g><g><rect x="2" y="542" width="98" height="104" fill="#3f7fde"/><circle cx="36" cy="576" r="34" fill="#f5efe9"/><rect x="26" y="606" width="90" height="20" fill="#c2d79e"/></g><g><rect x="98" y="542" width="98" height="104" fill="#3f7fde"/><circle cx="132" cy="576" r="34" fill="#f5efe9"/><rect x="122" y="606" width="90" height="20" fill="#c2d79e"/></g><g><rect x="194" y="542" width="98" height="104" fill="#3f7fde"/><circle cx="228" cy="576" r="34" fill="#f5efe9"/><rect x="218" y="606" width="90" height="20" fill="#c2d79e"/></g><g><rect x="290" y="542" width="98" height="104" fill="#3f7fde"/><circle cx="324" cy="576" r="34" fill="#f5efe9"/><rect x="314" y="606" width="90" height="20" fill="#c2d79e"/></g><g><rect x="386" y="542" width="98" height="104" fill="#3f7fde"/><circle cx="420" cy="576" r="34" fill="#f5efe9"/><rect x="410" y="606" width="90" height="20" fill="#c2d79e"/></g><g><rect x="482" y="542" width="98" height="104" fill="#3f7fde"/><circle cx="516" cy="576" r="34" fill="#f5efe9"/><rect x="506" y="606" width="90" height="20" fill="#c2d79e"/></g><g><rect x="578" y="542" width="98" height="104" fill="#3f7fde"/><circle cx="612" cy="576" r="34" fill="#f5efe9"/><rect x="602" y="606" width="90" height="20" fill="#c2d79e"/></g><g><rect x="674" y="542" width="98" height="104" fill="#3f7fde"/><circle cx="708" cy="576" r="34" fill="#f5efe9"/><rect x="698" y="606" width="90" height="20" fill="#c2d79e"/></g><g><rect x="770" y="542" width="98" height="104" fill="#3f7fde"/><circle cx="804" cy="576" r="34" fill="#f5efe9"/><rect x="794" y="606" width="90" height="20" fill="#c2d79e"/></g><g><rect x="866" y="542" width="98" height="104" fill="#3f7fde"/><circle cx="900" cy="576" r="34" fill="#f5efe9"/><rect x="890" y="606" width="90" height="20" fill="#c2d79e"/></g><g><rect x="962" y="542" width="98" height="104" fill="#3f7fde"/><circle cx="996" cy="576" r="34" fill="#f5efe9"/><rect x="986" y="606" width="90" height="20" fill="#c2d79e"/></g><g><rect x="1058" y="542" width="98" height="104" fill="#3f7fde"/><circle cx="1092" cy="576" r="34" fill="#f5efe9"/><rect x="1082" y="606" width="90" height="20" fill="#c2d79e"/></g><g><rect x="1154" y="542" width="98" height="104" fill="#3f7fde"/><circle cx="1188" cy="576" r="34" fill="#f5efe9"/><rect x="1178" y="606" width="90" height="20" fill="#c2d79e"/></g><g><rect x="1250" y="542" width="98" height="104" fill="#3f7fde"/><circle cx="1284" cy="576" r="34" fill="#f5efe9"/><rect x="1274" y="606" width="90" height="20" fill="#c2d79e"/></g><g><rect x="1346" y="542" width="98" height="104" fill="#3f7fde"/><circle cx="1380" cy="576" r="34" fill="#f5efe9"/><rect x="1370" y="606" width="90" height="20" fill="#c2d79e"/></g><g><rect x="1442" y="542" width="98" height="104" fill="#3f7fde"/><circle cx="1476" cy="576" r="34" fill="#f5efe9"/><rect x="1466" y="606" width="90" height="20" fill="#c2d79e"/></g><g><rect x="1538" y="542" width="98" height="104" fill="#3f7fde"/><circle cx="1572" cy="576" r="34" fill="#f5efe9"/><rect x="1562" y="606" width="90" height="20" fill="#c2d79e"/></g><g><rect x="1634" y="542" width="98" height="104" fill="#3f7fde"/><circle cx="1668" cy="576" r="34" fill="#f5efe9"/><rect x="1658" y="606" width="90" height="20" fill="#c2d79e"/></g><g><rect x="1730" y="542" width="98" height="104" fill="#3f7fde"/><circle cx="1764" cy="576" r="34" fill="#f5efe9"/><rect x="1754" y="606" width="90" height="20" fill="#c2d79e"/></g><g><rect x="1826" y="542" width="98" height="104" fill="#3f7fde"/><circle cx="1860" cy="576" r="34" fill="#f5efe9"/><rect x="1850" y="606" width="90" height="20" fill="#c2d79e"/></g><g><rect x="2" y="650" width="98" height="104" fill="#3f7fde"/><circle cx="36" cy="684" r="34" fill="#f5efe9"/><rect x="26" y="714" width="90" height="20" fill="#c2d79e"/></g><g><rect x="98" y="650" width="98" height="104" fill="#3f7fde"/><circle cx="132" cy="684" r="34" fill="#f5efe9"/><rect x="122" y="714" width="90" height="20" fill="#c2d79e"/></g><g><rect x="194" y="650" width="98" height="104" fill="#3f7fde"/><circle cx="228" cy="684" r="34" fill="#f5efe9"/><rect x="218" y="714" width="90" height="20" fill="#c2d79e"/></g><g><rect x="290" y="650" width="98" height="104" fill="#3f7fde"/><circle cx="324" cy="684" r="34" fill="#f5efe9"/><rect x="314" y="714" width="90" height="20" fill="#c2d79e"/></g><g><rect x="386" y="650" width="98" height="104" fill="#3f7fde"/><circle cx="420" cy="684" r="34" fill="#f5efe9"/><rect x="410" y="714" width="90" height="20" fill="#c2d79e"/></g><g><rect x="482" y="650" width="98" height="104" fill="#3f7fde"/><circle cx="516" cy="684" r="34" fill="#f5efe9"/><rect x="506" y="714" width="90" height="20" fill="#c2d79e"/></g><g><rect x="578" y="650" width="98" height="104" fill="#3f7fde"/><circle cx="612" cy="684" r="34" fill="#f5efe9"/><rect x="602" y="714" width="90" height="20" fill="#c2d79e"/></g><g><rect x="674" y="650" width="98" height="104" fill="#3f7fde"/><circle cx="708" cy="684" r="34" fill="#f5efe9"/><rect x="698" y="714" width="90" height="20" fill="#c2d79e"/></g><g><rect x="770" y="650" width="98" height="104" fill="#3f7fde"/><circle cx="804" cy="684" r="34" fill="#f5efe9"/><rect x="794" y="714" width="90" height="20" fill="#c2d79e"/></g><g><rect x="866" y="650" width="98" height="104" fill="#3f7fde"/><circle cx="900" cy="684" r="34" fill="#f5efe9"/><rect x="890" y="714" width="90" height="20" fill="#c2d79e"/></g><g><rect x="962" y="650" width="98" height="104" fill="#3f7fde"/><circle cx="996" cy="684" r="34" fill="#f5efe9"/><rect x="986" y="714" width="90" height="20" fill="#c2d79e"/></g><g><rect x="1058" y="650" width="98" height="104" fill="#3f7fde"/><circle cx="1092" cy="684" r="34" fill="#f5efe9"/><rect x="1082" y="714" width="90" height="20" fill="#c2d79e"/></g><g><rect x="1154" y="650" width="98" height="104" fill="#3f7fde"/><circle cx="1188" cy="684" r="34" fill="#f5efe9"/><rect x="1178" y="714" width="90" height="20" fill="#c2d79e"/></g><g><rect x="1250" y="650" width="98" height="104" fill="#3f7fde"/><circle cx="1284" cy="684" r="34" fill="#f5efe9"/><rect x="1274" y="714" width="90" height="20" fill="#c2d79e"/></g><g><rect x="1346" y="650" width="98" height="104" fill="#3f7fde"/><circle cx="1380" cy="684" r="34" fill="#f5efe9"/><rect x="1370" y="714" width="90" height="20" fill="#c2d79e"/></g><g><rect x="1442" y="650" width="98" height="104" fill="#3f7fde"/><circle cx="1476" cy="684" r="34" fill="#f5efe9"/><rect x="1466" y="714" width="90" height="20" fill="#c2d79e"/></g><g><rect x="1538" y="650" width="98" height="104" fill="#3f7fde"/><circle cx="1572" cy="684" r="34" fill="#f5efe9"/><rect x="1562" y="714" width="90" height="20" fill="#c2d79e"/></g><g><rect x="1634" y="650" width="98" height="104" fill="#3f7fde"/><circle cx="1668" cy="684" r="34" fill="#f5efe9"/><rect x="1658" y="714" width="90" height="20" fill="#c2d79e"/></g><g><rect x="1730" y="650" width="98" height="104" fill="#3f7fde"/><circle cx="1764" cy="684" r="34" fill="#f5efe9"/><rect x="1754" y="714" width="90" height="20" fill="#c2d79e"/></g><g><rect x="1826" y="650" width="98" height="104" fill="#3f7fde"/><circle cx="1860" cy="684" r="34" fill="#f5efe9"/><rect x="1850" y="714" width="90" height="20" fill="#c2d79e"/></g><g><rect x="2" y="758" width="98" height="104" fill="#3f7fde"/><circle cx="36" cy="792" r="34" fill="#f5efe9"/><rect x="26" y="822" width="90" height="20" fill="#c2d79e"/></g><g><rect x="98" y="758" width="98" height="104" fill="#3f7fde"/><circle cx="132" cy="792" r="34" fill="#f5efe9"/><rect x="122" y="822" width="90" height="20" fill="#c2d79e"/></g><g><rect x="194" y="758" width="98" height="104" fill="#3f7fde"/><circle cx="228" cy="792" r="34" fill="#f5efe9"/><rect x="218" y="822" width="90" height="20" fill="#c2d79e"/></g><g><rect x="290" y="758" width="98" height="104" fill="#3f7fde"/><circle cx="324" cy="792" r="34" fill="#f5efe9"/><rect x="314" y="822" width="90" height="20" fill="#c2d79e"/></g><g><rect x="386" y="758" width="98" height="104" fill="#3f7fde"/><circle cx="420" cy="792" r="34" fill="#f5efe9"/><rect x="410" y="822" width="90" height="20" fill="#c2d79e"/></g><g><rect x="482" y="758" width="98" height="104" fill="#3f7fde"/><circle cx="516" cy="792" r="34" fill="#f5efe9"/><rect x="506" y="822" width="90" height="20" fill="#c2d79e"/></g><g><rect x="578" y="758" width="98" height="104" fill="#3f7fde"/><circle cx="612" cy="792" r="34" fill="#f5efe9"/><rect x="602" y="822" width="90" height="20" fill="#c2d79e"/></g><g><rect x="674" y="758" width="98" height="104" fill="#3f7fde"/><circle cx="708" cy="792" r="34" fill="#f5efe9"/><rect x="698" y="822" width="90" height="20" fill="#c2d79e"/></g><g><rect x="770" y="758" width="98" height="104" fill="#3f7fde"/><circle cx="804" cy="792" r="34" fill="#f5efe9"/><rect x="794" y="822" width="90" height="20" fill="#c2d79e"/></g><g><rect x="866" y="758" width="98" height="104" fill="#3f7fde"/><circle cx="900" cy="792" r="34" fill="#f5efe9"/><rect x="890" y="822" width="90" height="20" fill="#c2d79e"/></g><g><rect x="962" y="758" width="98" height="104" fill="#3f7fde"/><circle cx="996" cy="792" r="34" fill="#f5efe9"/><rect x="986" y="822" width="90" height="20" fill="#c2d79e"/></g><g><rect x="1058" y="758" width="98" height="104" fill="#3f7fde"/><circle cx="1092" cy="792" r="34" fill="#f5efe9"/><rect x="1082" y="822" width="90" height="20" fill="#c2d79e"/></g><g><rect x="1154" y="758" width="98" height="104" fill="#3f7fde"/><circle cx="1188" cy="792" r="34" fill="#f5efe9"/><rect x="1178" y="822" width="90" height="20" fill="#c2d79e"/></g><g><rect x="1250" y="758" width="98" height="104" fill="#3f7fde"/><circle cx="1284" cy="792" r="34" fill="#f5efe9"/><rect x="1274" y="822" width="90" height="20" fill="#c2d79e"/></g><g><rect x="1346" y="758" width="98" height="104" fill="#3f7fde"/><circle cx="1380" cy="792" r="34" fill="#f5efe9"/><rect x="1370" y="822" width="90" height="20" fill="#c2d79e"/></g><g><rect x="1442" y="758" width="98" height="104" fill="#3f7fde"/><circle cx="1476" cy="792" r="34" fill="#f5efe9"/><rect x="1466" y="822" width="90" height="20" fill="#c2d79e"/></g><g><rect x="1538" y="758" width="98" height="104" fill="#3f7fde"/><circle cx="1572" cy="792" r="34" fill="#f5efe9"/><rect x="1562" y="822" width="90" height="20" fill="#c2d79e"/></g><g><rect x="1634" y="758" width="98" height="104" fill="#3f7fde"/><circle cx="1668" cy="792" r="34" fill="#f5efe9"/><rect x="1658" y="822" width="90" height="20" fill="#c2d79e"/></g><g><rect x="1730" y="758" width="98" height="104" fill="#3f7fde"/><circle cx="1764" cy="792" r="34" fill="#f5efe9"/><rect x="1754" y="822" width="90" height="20" fill="#c2d79e"/></g><g><rect x="1826" y="758" width="98" height="104" fill="#3f7fde"/><circle cx="1860" cy="792" r="34" fill="#f5efe9"/><rect x="1850" y="822" width="90" height="20" fill="#c2d79e"/></g><g><rect x="2" y="866" width="98" height="104" fill="#3f7fde"/><circle cx="36" cy="900" r="34" fill="#f5efe9"/><rect x="26" y="930" width="90" height="20" fill="#c2d79e"/></g><g><rect x="98" y="866" width="98" height="104" fill="#3f7fde"/><circle cx="132" cy="900" r="34" fill="#f5efe9"/><rect x="122" y="930" width="90" height="20" fill="#c2d79e"/></g><g><rect x="194" y="866" width="98" height="104" fill="#3f7fde"/><circle cx="228" cy="900" r="34" fill="#f5efe9"/><rect x="218" y="930" width="90" height="20" fill="#c2d79e"/></g><g><rect x="290" y="866" width="98" height="104" fill="#3f7fde"/><circle cx="324" cy="900" r="34" fill="#f5efe9"/><rect x="314" y="930" width="90" height="20" fill="#c2d79e"/></g><g><rect x="386" y="866" width="98" height="104" fill="#3f7fde"/><circle cx="420" cy="900" r="34" fill="#f5efe9"/><rect x="410" y="930" width="90" height="20" fill="#c2d79e"/></g><g><rect x="482" y="866" width="98" height="104" fill="#3f7fde"/><circle cx="516" cy="900" r="34" fill="#f5efe9"/><rect x="506" y="930" width="90" height="20" fill="#c2d79e"/></g><g><rect x="578" y="866" width="98" height="104" fill="#3f7fde"/><circle cx="612" cy="900" r="34" fill="#f5efe9"/><rect x="602" y="930" width="90" height="20" fill="#c2d79e"/></g><g><rect x="674" y="866" width="98" height="104" fill="#3f7fde"/><circle cx="708" cy="900" r="34" fill="#f5efe9"/><rect x="698" y="930" width="90" height="20" fill="#c2d79e"/></g><g><rect x="770" y="866" width="98" height="104" fill="#3f7fde"/><circle cx="804" cy="900" r="34" fill="#f5efe9"/><rect x="794" y="930" width="90" height="20" fill="#c2d79e"/></g><g><rect x="866" y="866" width="98" height="104" fill="#3f7fde"/><circle cx="900" cy="900" r="34" fill="#f5efe9"/><rect x="890" y="930" width="90" height="20" fill="#c2d79e"/></g><g><rect x="962" y="866" width="98" height="104" fill="#3f7fde"/><circle cx="996" cy="900" r="34" fill="#f5efe9"/><rect x="986" y="930" width="90" height="20" fill="#c2d79e"/></g><g><rect x="1058" y="866" width="98" height="104" fill="#3f7fde"/><circle cx="1092" cy="900" r="34" fill="#f5efe9"/><rect x="1082" y="930" width="90" height="20" fill="#c2d79e"/></g><g><rect x="1154" y="866" width="98" height="104" fill="#3f7fde"/><circle cx="1188" cy="900" r="34" fill="#f5efe9"/><rect x="1178" y="930" width="90" height="20" fill="#c2d79e"/></g><g><rect x="1250" y="866" width="98" height="104" fill="#3f7fde"/><circle cx="1284" cy="900" r="34" fill="#f5efe9"/><rect x="1274" y="930" width="90" height="20" fill="#c2d79e"/></g><g><rect x="1346" y="866" width="98" height="104" fill="#3f7fde"/><circle cx="1380" cy="900" r="34" fill="#f5efe9"/><rect x="1370" y="930" width="90" height="20" fill="#c2d79e"/></g><g><rect x="1442" y="866" width="98" height="104" fill="#3f7fde"/><circle cx="1476" cy="900" r="34" fill="#f5efe9"/><rect x="1466" y="930" width="90" height="20" fill="#c2d79e"/></g><g><rect x="1538" y="866" width="98" height="104" fill="#3f7fde"/><circle cx="1572" cy="900" r="34" fill="#f5efe9"/><rect x="1562" y="930" width="90" height="20" fill="#c2d79e"/></g><g><rect x="1634" y="866" width="98" height="104" fill="#3f7fde"/><circle cx="1668" cy="900" r="34" fill="#f5efe9"/><rect x="1658" y="930" width="90" height="20" fill="#c2d79e"/></g><g><rect x="1730" y="866" width="98" height="104" fill="#3f7fde"/><circle cx="1764" cy="900" r="34" fill="#f5efe9"/><rect x="1754" y="930" width="90" height="20" fill="#c2d79e"/></g><g><rect x="1826" y="866" width="98" height="104" fill="#3f7fde"/><circle cx="1860" cy="900" r="34" fill="#f5efe9"/><rect x="1850" y="930" width="90" height="20" fill="#c2d79e"/></g><g><rect x="2" y="974" width="98" height="104" fill="#3f7fde"/><circle cx="36" cy="1008" r="34" fill="#f5efe9"/><rect x="26" y="1038" width="90" height="20" fill="#c2d79e"/></g><g><rect x="98" y="974" width="98" height="104" fill="#3f7fde"/><circle cx="132" cy="1008" r="34" fill="#f5efe9"/><rect x="122" y="1038" width="90" height="20" fill="#c2d79e"/></g><g><rect x="194" y="974" width="98" height="104" fill="#3f7fde"/><circle cx="228" cy="1008" r="34" fill="#f5efe9"/><rect x="218" y="1038" width="90" height="20" fill="#c2d79e"/></g><g><rect x="290" y="974" width="98" height="104" fill="#3f7fde"/><circle cx="324" cy="1008" r="34" fill="#f5efe9"/><rect x="314" y="1038" width="90" height="20" fill="#c2d79e"/></g><g><rect x="386" y="974" width="98" height="104" fill="#3f7fde"/><circle cx="420" cy="1008" r="34" fill="#f5efe9"/><rect x="410" y="1038" width="90" height="20" fill="#c2d79e"/></g><g><rect x="482" y="974" width="98" height="104" fill="#3f7fde"/><circle cx="516" cy="1008" r="34" fill="#f5efe9"/><rect x="506" y="1038" width="90" height="20" fill="#c2d79e"/></g><g><rect x="578" y="974" width="98" height="104" fill="#3f7fde"/><circle cx="612" cy="1008" r="34" fill="#f5efe9"/><rect x="602" y="1038" width="90" height="20" fill="#c2d79e"/></g><g><rect x="674" y="974" width="98" height="104" fill="#3f7fde"/><circle cx="708" cy="1008" r="34" fill="#f5efe9"/><rect x="698" y="1038" width="90" height="20" fill="#c2d79e"/></g><g><rect x="770" y="974" width="98" height="104" fill="#3f7fde"/><circle cx="804" cy="1008" r="34" fill="#f5efe9"/><rect x="794" y="1038" width="90" height="20" fill="#c2d79e"/></g><g><rect x="866" y="974" width="98" height="104" fill="#3f7fde"/><circle cx="900" cy="1008" r="34" fill="#f5efe9"/><rect x="890" y="1038" width="90" height="20" fill="#c2d79e"/></g><g><rect x="962" y="974" width="98" height="104" fill="#3f7fde"/><circle cx="996" cy="1008" r="34" fill="#f5efe9"/><rect x="986" y="1038" width="90" height="20" fill="#c2d79e"/></g><g><rect x="1058" y="974" width="98" height="104" fill="#3f7fde"/><circle cx="1092" cy="1008" r="34" fill="#f5efe9"/><rect x="1082" y="1038" width="90" height="20" fill="#c2d79e"/></g><g><rect x="1154" y="974" width="98" height="104" fill="#3f7fde"/><circle cx="1188" cy="1008" r="34" fill="#f5efe9"/><rect x="1178" y="1038" width="90" height="20" fill="#c2d79e"/></g><g><rect x="1250" y="974" width="98" height="104" fill="#3f7fde"/><circle cx="1284" cy="1008" r="34" fill="#f5efe9"/><rect x="1274" y="1038" width="90" height="20" fill="#c2d79e"/></g><g><rect x="1346" y="974" width="98" height="104" fill="#3f7fde"/><circle cx="1380" cy="1008" r="34" fill="#f5efe9"/><rect x="1370" y="1038" width="90" height="20" fill="#c2d79e"/></g><g><rect x="1442" y="974" width="98" height="104" fill="#3f7fde"/><circle cx="1476" cy="1008" r="34" fill="#f5efe9"/><rect x="1466" y="1038" width="90" height="20" fill="#c2d79e"/></g><g><rect x="1538" y="974" width="98" height="104" fill="#3f7fde"/><circle cx="1572" cy="1008" r="34" fill="#f5efe9"/><rect x="1562" y="1038" width="90" height="20" fill="#c2d79e"/></g><g><rect x="1634" y="974" width="98" height="104" fill="#3f7fde"/><circle cx="1668" cy="1008" r="34" fill="#f5efe9"/><rect x="1658" y="1038" width="90" height="20" fill="#c2d79e"/></g><g><rect x="1730" y="974" width="98" height="104" fill="#3f7fde"/><circle cx="1764" cy="1008" r="34" fill="#f5efe9"/><rect x="1754" y="1038" width="90" height="20" fill="#c2d79e"/></g><g><rect x="1826" y="974" width="98" height="104" fill="#3f7fde"/><circle cx="1860" cy="1008" r="34" fill="#f5efe9"/><rect x="1850" y="1038" width="90" height="20" fill="#c2d79e"/></g></svg>